<svg width="333" height="290" viewBox="0 0 333 290" fill="none" xmlns="http://www.w3.org/2000/svg">
<path d="M108.092 4.91327C108.092 2.19974 110.292 0 113.005 0H312.811C323.665 0 332.464 8.79898 332.464 19.6531V217.821C332.464 220.535 330.265 222.735 327.551 222.735C324.838 222.735 322.638 220.535 322.638 217.821V19.6531C322.638 14.226 318.238 9.82653 312.811 9.82653H113.005C110.292 9.82653 108.092 7.62679 108.092 4.91327Z" fill="#3BB3EB"/>
<path fill-rule="evenodd" clip-rule="evenodd" d="M180.965 213.76C193.408 217.315 206.416 219.092 219.99 219.092C236.149 219.092 249.48 216.668 259.984 211.821C270.649 206.973 278.648 200.59 283.98 192.672C289.313 184.754 291.979 176.028 291.979 166.494C291.979 157.607 290.121 150.254 286.404 144.437C282.849 138.62 278.163 133.933 272.346 130.378C266.528 126.823 260.065 123.996 252.955 121.895C246.006 119.794 238.977 117.936 231.867 116.32C224.918 114.704 218.536 113.088 212.718 111.472C206.901 109.856 202.215 107.756 198.66 105.17C195.105 102.423 193.327 98.868 193.327 94.5051C193.327 90.7884 194.378 87.5566 196.478 84.8095C198.579 81.9009 202.053 79.5578 206.901 77.7803C211.749 76.0028 217.97 75.114 225.565 75.114C233.16 75.114 240.916 76.2452 248.834 78.5075C255.659 80.3181 262.484 83.0292 269.308 86.6406C271.06 87.5675 273.251 86.8136 273.998 84.9778L283.676 61.1689C284.273 59.7003 283.736 58.0084 282.367 57.2093C275.005 52.9129 266.656 49.6704 257.318 47.4818C246.976 44.8964 236.472 43.6036 225.807 43.6036C209.81 43.6036 196.478 46.0275 185.813 50.8753C175.31 55.5614 167.392 61.9443 162.059 70.0239C159.205 74.3942 157.139 79.0353 155.86 83.9472C155.321 86.0163 153.079 87.231 151.075 86.4837C141.107 82.7646 129.578 80.9051 116.49 80.9051H46.3224C44.5133 80.9051 43.0469 82.3716 43.0469 84.1806V247.301C43.0469 249.11 44.5133 250.577 46.3224 250.577H79.0382C80.8472 250.577 82.3137 249.11 82.3137 247.301V206.586C82.3137 204.777 83.7802 203.311 85.5892 203.311L116.588 203.311C117.68 203.31 118.708 203.839 119.328 204.739L149.933 249.159C150.544 250.047 151.553 250.577 152.63 250.577H187.052C189.699 250.577 191.253 247.6 189.74 245.428L170.093 217.235C168.156 214.455 171.373 210.553 174.568 211.681C176.624 212.407 178.757 213.1 180.965 213.76ZM181.208 175.194C180.115 176.849 180.673 179.137 182.502 179.905C184.892 180.908 187.369 181.851 189.934 182.734C199.953 185.966 210.052 187.582 220.232 187.582C227.989 187.582 234.21 186.855 238.896 185.4C243.744 183.785 247.299 181.603 249.561 178.856C251.824 176.109 252.955 172.958 252.955 169.403C252.955 164.878 251.177 161.323 247.622 158.738C244.067 155.991 239.381 153.809 233.564 152.193C227.746 150.416 221.283 148.8 214.173 147.346C207.224 145.73 200.195 143.791 193.085 141.528C192.719 141.409 192.355 141.288 191.992 141.166C191.104 140.865 190.176 141.534 190.176 142.472C190.176 155.076 187.187 165.983 181.208 175.194ZM82.3137 168.767C82.3137 170.576 83.7802 172.043 85.5892 172.043H114.309C126.428 172.043 135.477 169.457 141.456 164.287C147.435 158.954 150.425 151.682 150.425 142.472C150.425 133.099 147.435 125.828 141.456 120.657C135.477 115.486 126.428 112.9 114.309 112.9H85.5892C83.7802 112.9 82.3137 114.367 82.3137 116.176V168.767Z" fill="#3BB3EB"/>
<path d="M219.459 289.883C222.173 289.883 224.372 287.683 224.372 284.969C224.372 282.256 222.173 280.056 219.459 280.056H19.653C14.226 280.056 9.82653 275.657 9.82653 270.23V72.0612C9.82653 69.3477 7.62677 67.148 4.91327 67.148C2.19973 67.148 0 69.3477 0 72.0612V270.23C0 281.084 8.79896 289.883 19.653 289.883H219.459Z" fill="#3BB3EB"/>
</svg>
